<svg width="504" height="504" xmlns="http://www.w3.org/2000/svg" version="1.1">
    <path fill="rgb(55, 48, 163)"
          d="m341.03857,257.60148c0,6.1602 -5.0391,11.199 -11.199,11.199l-7.8398,0c-3.3594,17.922 -19.039,31.922 -38.078,31.922c-6.1602,0 -11.199,-5.0391 -11.199,-11.199c0,-6.1602 5.0391,-11.199 11.199,-11.199c8.9609,0 16.238,-7.2812 16.238,-16.238l0,-8.9609c0,-8.9609 -7.2812,-16.238 -16.238,-16.238c-8.9609,0 -16.238,7.2812 -16.238,16.238l0,8.9609c0,21.281 -17.359,38.641 -38.641,38.641c-19.039,0 -34.719,-14 -38.078,-31.922l-6.7266,-0.00391c-6.1602,0 -11.199,-5.0391 -11.199,-11.199c0,-6.1602 5.0391,-11.199 11.199,-11.199l7.8398,0c3.3594,-17.922 19.039,-31.922 38.078,-31.922c6.1602,0 11.199,5.0391 11.199,11.199c0,6.1602 -5.0391,11.199 -11.199,11.199c-8.9609,0 -16.238,7.2812 -16.238,16.238l0,8.9609c0,8.9609 7.2812,16.238 16.238,16.238c8.9609,0 16.238,-7.2812 16.238,-16.238l0,-8.9609c0,-21.281 17.359,-38.641 38.641,-38.641c19.039,0 34.719,14 38.078,31.922l6.7227,0c6.1602,0 11.203,5.043 11.203,11.203l-0.0001,-0.00009zm-123.2,-173.6c0,-18.48 15.121,-33.602 33.602,-33.602s33.602,15.121 33.602,33.602s-15.121,33.602 -33.602,33.602s-33.602,-15.121 -33.602,-33.602zm22.402,0c0,6.1602 5.0391,11.199 11.199,11.199s11.199,-5.0391 11.199,-11.199s-5.0391,-11.199 -11.199,-11.199s-11.199,5.0391 -11.199,11.199zm89.598,39.199c6.1602,0 11.199,-5.0391 11.199,-11.199l0.00391,-56c0,-6.1602 -5.0391,-11.199 -11.199,-11.199s-11.199,5.0391 -11.199,11.199l0,56c-0.00391,6.1602 5.0352,11.199 11.195,11.199l0.00009,0zm11.203,16.801l-22.398,0c-6.1602,0 -11.199,5.0391 -11.199,11.199c0,6.1602 5.0391,11.199 11.199,11.199l22.398,0c6.1602,0 11.199,-5.0391 11.199,-11.199c0,-6.1602 -5.0391,-11.199 -11.199,-11.199zm0,44.801l-22.398,0c-6.1602,0 -11.199,5.0391 -11.199,11.199s5.0391,11.199 11.199,11.199l22.398,0c6.1602,0 11.199,-5.0391 11.199,-11.199s-5.0391,-11.199 -11.199,-11.199zm-168,-61.602c6.1602,0 11.199,-5.0391 11.199,-11.199l0,-56c0,-6.1602 -5.0391,-11.199 -11.199,-11.199c-6.1602,0 -11.199,5.0391 -11.199,11.199l0,56c-0.00391,6.1602 5.0391,11.199 11.199,11.199zm-11.203,39.199l22.398,0c6.1602,0 11.199,-5.0391 11.199,-11.199c0,-6.1602 -5.0391,-11.199 -11.199,-11.199l-22.398,0c-6.1602,0 -11.199,5.0391 -11.199,11.199c0,6.1602 5.0391,11.199 11.199,11.199zm33.602,33.602c0,-6.1602 -5.0391,-11.199 -11.199,-11.199l-22.398,0c-6.1602,0 -11.199,5.0391 -11.199,11.199s5.0391,11.199 11.199,11.199l22.398,0c6.1602,0 11.199,-5.0391 11.199,-11.199zm185.36,-59.922c-0.55859,-0.55859 -1.1211,-0.55859 -1.6797,-1.1211c-0.55859,0 -1.1211,-0.55859 -2.2383,-0.55859c-3.9219,-0.55859 -7.2812,0.55859 -10.078,2.8008c-2.2422,2.8008 -3.3633,5.6016 -3.3633,8.4023l0,2.2383c0,0.55859 0.55859,1.1211 0.55859,2.2383c0,0.55859 0.55859,1.1211 1.1211,1.6797c0.55859,0.55859 0.55859,1.1211 1.1211,1.6797c0.55859,0.55859 1.1211,1.1211 1.6797,1.1211c0.55859,0.55859 1.1211,0.55859 1.6797,1.1211c0.55859,0.55859 1.1211,0.55859 2.2383,0.55859l2.2383,0c2.8008,0 5.6016,-1.1211 7.8398,-3.3594c0.55859,-0.55859 1.1211,-1.1211 1.1211,-1.6797c0.55859,-0.55859 0.55859,-1.1211 1.1211,-1.6797c0.55859,-0.55859 0.55859,-1.1211 0.55859,-2.2383l0,-2.2383c0,-2.8008 -1.1211,-5.6016 -3.3594,-7.8398c0.5625,-0.00391 0.00391,-0.5625 -0.55859,-1.125l-0.00009,0zm-226.8,214.48c-2.2383,2.2422 -3.3594,5.043 -3.3594,7.8398c0,2.8008 1.1211,5.6016 3.3594,7.8398c2.2422,2.2422 5.043,3.3633 7.8398,3.3633c2.8008,0 5.6016,-1.1211 7.8398,-3.3594c2.2422,-2.2422 3.3633,-5.043 3.3633,-7.8438c0,-2.8008 -1.1211,-5.6016 -3.3594,-7.8398c-3.9219,-4.4805 -11.762,-4.4805 -15.684,0l0.0005,0.0001zm75.043,97.441l-39.199,0c-6.1602,0 -11.199,5.0391 -11.199,11.199c0,6.1602 5.0391,11.199 11.199,11.199l39.199,0c6.1602,0 11.199,-5.0391 11.199,-11.199c0,-6.1602 -5.0391,-11.199 -11.199,-11.199zm-78.402,0l-39.199,0c-6.1602,0 -11.199,5.0391 -11.199,11.199c0,6.1602 5.0391,11.199 11.199,11.199l39.199,0c6.1602,0 11.199,-5.0391 11.199,-11.199c0,-6.1602 -5.0391,-11.199 -11.199,-11.199zm117.6,22.398l39.199,0c6.1602,0 11.199,-5.0391 11.199,-11.199c0,-6.1602 -5.0391,-11.199 -11.199,-11.199l-39.199,0c-6.1602,0 -11.199,5.0391 -11.199,11.199c0,6.1602 5.0391,11.199 11.199,11.199zm78.398,0l39.199,0c6.1602,0 11.199,-5.0391 11.199,-11.199c0,-6.1602 -5.0391,-11.199 -11.199,-11.199l-39.199,0c-6.1602,0 -11.199,5.0391 -11.199,11.199c0,6.1602 5.0391,11.199 11.199,11.199zm156.8,-291.2l0,313.6l0,0.55859l0,1.1211l0,1.1211c0,0.55859 0,0.55859 -0.55859,1.1211c0,0.55859 0,0.55859 -0.55859,1.1211c0,0 -0.55859,0.55859 -0.55859,1.1211c0,0.55859 -0.55859,0.55859 -0.55859,1.1211c0,0 0,0.55859 -0.55859,0.55859c-0.55859,0.55859 -0.55859,0.55859 -1.1211,1.1211c-0.55859,0 -0.55859,0.55859 -0.55859,0.55859c-0.55859,0 -1.1211,0.55859 -1.1211,0.55859l-0.55859,0.55859c-0.55859,0 -1.1211,0.55859 -1.6797,0.55859l-0.55859,0l-2.2383,0l-482.17,0l-2.2383,0l-0.55859,0c-0.55859,0 -1.1211,-0.55859 -1.6797,-0.55859c0,0 -0.55859,0 -0.55859,-0.55859c-0.55859,0 -1.1211,-0.55859 -1.1211,-0.55859l-1.6797,-1.6797s0,-0.55859 -0.55859,-0.55859c0,-0.55859 -0.55859,-0.55859 -0.55859,-1.1211c0,-0.55859 -0.55859,-0.55859 -0.55859,-1.1211c0,-0.55859 -0.55859,-0.55859 -0.55859,-1.1211c0,-0.55859 0,-0.55859 -0.55859,-1.1211l0,-1.1211l0,-1.1211l0,-0.55859l-0.01172,-313.6l0,-0.55859l0,-1.1211l0,-1.1211c0,-0.55859 0,-0.55859 0.55859,-1.1211c0.55859,-0.55859 0,-0.55859 0.55859,-1.1211c0,-0.55859 0.55859,-0.55859 0.55859,-1.1211c0,-0.55859 0.55859,-0.55859 0.55859,-1.1211l0.55859,-0.55859c0,-0.55859 0.55859,-0.55859 1.1211,-1.1211l0,-0.55859l113.13,-96.316l0,-40.879c0,-17.922 14,-32.48 31.918,-32.48l205.52,0c17.359,0 31.922,14.559 31.922,32.48l0,40.879l113.68,97.441l0,0.55859c0.55859,0 0.55859,0.55859 1.1211,1.1211l0.55859,0.55859c0,0.55859 0.55859,0.55859 0.55859,1.1211c0,0.55859 0.55859,0.55859 0.55859,1.1211c0,0 0,0.55859 0.55859,1.1211c0,0.55859 0,0.55859 0.55859,1.1211l0,1.1211c-0.55469,-0.56641 -0.55469,-0.00391 -0.55469,0.55469l-0.00384,0.00001zm-481.6,11.199l95.199,65.52l0.00391,-153.44l-95.203,81.758l0.00009,6.162zm459.2,26.32l-229.04,151.2c-3.9219,2.8008 -8.9609,2.2383 -12.32,0l-217.84,-150.64l0,250.32l101.36,-90.16c4.4805,-3.9219 11.762,-3.9219 15.68,1.1211c3.9219,4.4805 3.9219,11.762 -1.1211,15.68l-97.438,87.359l422.8,0l-129.36,-114.8c-4.4805,-3.9219 -5.0391,-11.199 -1.1211,-15.68c3.9219,-4.4805 11.199,-5.0391 15.68,-1.1211l132.72,117.6l0.0002,-250.879zm0,-32.48l-95.203,-81.758l0,3.918c0,6.1602 -5.0391,11.199 -11.199,11.199c-6.1602,0 -11.199,-5.0391 -11.199,-11.199l0,-73.918c0,-5.6016 -4.4805,-10.078 -9.5195,-10.078l-204.96,-0.00391c-5.0391,0 -9.5195,4.4805 -9.5195,10.082l0,238.56l36.961,25.199l7.8398,0c6.1602,0 11.199,5.0391 11.199,11.199l0,1.6797l50.961,35.281l62.16,-40.879c1.6797,-3.9219 5.6016,-7.2812 10.078,-7.2812l0.55859,0l44.238,-29.121l0.00391,-82.316c0,-6.1602 5.0391,-11.199 11.199,-11.199c6.1602,0 11.199,5.0391 11.199,11.199l0,67.762l95.199,-62.719l0.0037,-5.60659z"/>
</svg>